<svg xmlns="http://www.w3.org/2000/svg" viewBox="0 0 75.883 46.806">
  <defs>
    <style>
      .cls-1 {
        fill: #fef1ee;
      }

      .cls-2 {
        fill: #efe2e0;
      }

      .cls-3 {
        fill: #edb072;
      }

      .cls-4 {
        fill: #f1ba7b;
      }

      .cls-5 {
        fill: #fff2bc;
      }
    </style>
  </defs>
  <g id="_x33_" transform="translate(-436.059 -95.597)">
    <g id="Group_173" data-name="Group 173">
      <path id="Path_162" data-name="Path 162" class="cls-1" d="M510,113.854a6.024,6.024,0,1,0-12.048,0H481.938v10.293h16.018A6.024,6.024,0,1,0,507.111,119,6,6,0,0,0,510,113.854Z"/>
    </g>
    <g id="Group_174" data-name="Group 174">
      <path id="Path_163" data-name="Path 163" class="cls-2" d="M481.937,118.95V124.1h16.018a6.024,6.024,0,1,0,9.155-5.151Z"/>
    </g>
    <g id="Group_175" data-name="Group 175">
      <path id="Path_164" data-name="Path 164" d="M511.942,113.854a7.994,7.994,0,0,1-1.884,5.137,7.967,7.967,0,1,1-13.8,7.1H481.936A1.939,1.939,0,0,1,480,124.147V113.854a1.939,1.939,0,0,1,1.939-1.939h14.318a7.964,7.964,0,0,1,15.688,1.939Zm-28.066,8.354h14.078a1.939,1.939,0,0,1,1.939,1.939,4.085,4.085,0,1,0,6.208-3.5,1.939,1.939,0,0,1,.007-3.316,4.033,4.033,0,0,0,1.956-3.483,4.085,4.085,0,1,0-8.171,0,1.939,1.939,0,0,1-1.939,1.939H483.876Z"/>
    </g>
    <g id="Group_176" data-name="Group 176">
      <path id="Path_165" data-name="Path 165" class="cls-3" d="M489.341,119a14.386,14.386,0,0,1-11.127,14.014,11.487,11.487,0,0,0-4.889,2.373A21.464,21.464,0,1,1,473.3,102.6a11.611,11.611,0,0,0,4.917,2.4A14.381,14.381,0,0,1,489.341,119Z"/>
    </g>
    <g id="Group_177" data-name="Group 177">
      <path id="Path_166" data-name="Path 166" class="cls-4" d="M458.2,140.447a21.465,21.465,0,0,1,1.26-42.893s8.881,8.683,8.881,21.446S458.2,140.447,458.2,140.447Z"/>
    </g>
    <g id="Group_178" data-name="Group 178">
      <path id="Path_167" data-name="Path 167" d="M459.454,142.4q-.681,0-1.366-.039a23.4,23.4,0,1,1,16.463-41.249,9.634,9.634,0,0,0,4.1,1.987,16.322,16.322,0,0,1,0,31.8,9.519,9.519,0,0,0-4.072,1.963A23.305,23.305,0,0,1,459.454,142.4Zm0-42.928a19.52,19.52,0,0,0-19.483,20.767,19.735,19.735,0,0,0,18.332,18.251,19.457,19.457,0,0,0,13.764-4.588,13.341,13.341,0,0,1,5.706-2.784,12.444,12.444,0,0,0,0-24.241,13.482,13.482,0,0,1-5.732-2.8A19.518,19.518,0,0,0,459.458,99.475Z"/>
    </g>
    <g id="Group_179" data-name="Group 179">
      <path id="Path_168" data-name="Path 168" class="cls-5" d="M459.374,111.258a1.934,1.934,0,0,1-1.371-.567l-1.2-1.2a1.939,1.939,0,0,1,2.741-2.743l1.2,1.2a1.939,1.939,0,0,1-1.37,3.31Z"/>
    </g>
    <g id="Group_180" data-name="Group 180">
      <path id="Path_169" data-name="Path 169" class="cls-5" d="M467.442,122.99a1.938,1.938,0,0,1-1.371-3.309l1.2-1.2a1.938,1.938,0,1,1,2.741,2.741l-1.2,1.2A1.929,1.929,0,0,1,467.442,122.99Z"/>
    </g>
    <g id="Group_181" data-name="Group 181">
      <path id="Path_170" data-name="Path 170" class="cls-5" d="M450.1,122.99a1.931,1.931,0,0,1-1.371-.568l-1.2-1.2a1.938,1.938,0,1,1,2.741-2.741l1.2,1.2a1.938,1.938,0,0,1-1.37,3.309Z"/>
    </g>
  </g>
</svg>
