<svg xmlns="http://www.w3.org/2000/svg" viewBox="0 0 73.546 81.307">
  <defs>
    <style>
      .cls-1 {
        fill: #b9da95;
      }

      .cls-2 {
        fill: #f47a59;
      }

      .cls-3 {
        fill: #a56452;
      }

      .cls-4 {
        fill: #b2705b;
      }

      .cls-5 {
        fill: #f1ba7b;
      }

      .cls-6 {
        fill: #fdc784;
      }

      .cls-7 {
        fill: #fff2bc;
      }

      .cls-8 {
        fill: #ffd074;
      }
    </style>
  </defs>
  <g id="_x31_" transform="translate(-138.127 -78.347)">
    <g id="Group_93" data-name="Group 93">
      <path id="Path_104" data-name="Path 104" class="cls-1" d="M209.734,142.412v2.6a1.518,1.518,0,0,1-1.513,1.523H141.65a1.523,1.523,0,0,1-1.523-1.523v-2.606a1.518,1.518,0,0,1,1.523-1.513h66.571A1.518,1.518,0,0,1,209.734,142.412Z"/>
    </g>
    <g id="Group_94" data-name="Group 94">
      <path id="Path_105" data-name="Path 105" d="M208.221,148.479H141.65a3.466,3.466,0,0,1-3.462-3.462v-2.6a3.461,3.461,0,0,1,3.462-3.452h66.571a3.456,3.456,0,0,1,3.452,3.452v2.6A3.461,3.461,0,0,1,208.221,148.479ZM142.066,144.6H207.8v-1.765h-65.73V144.6Z"/>
    </g>
    <g id="Group_95" data-name="Group 95">
      <path id="Path_106" data-name="Path 106" class="cls-2" d="M209.673,108.778v2.605a1.518,1.518,0,0,1-1.513,1.523H141.589a1.523,1.523,0,0,1-1.523-1.523v-2.606a1.518,1.518,0,0,1,1.523-1.513H208.16A1.519,1.519,0,0,1,209.673,108.778Z"/>
    </g>
    <g id="Group_96" data-name="Group 96">
      <path id="Path_107" data-name="Path 107" class="cls-2" d="M205.141,108.778v2.605a1.518,1.518,0,0,1-1.513,1.523H146.12a1.523,1.523,0,0,1-1.523-1.523v-2.606a1.518,1.518,0,0,1,1.523-1.513h57.508A1.519,1.519,0,0,1,205.141,108.778Z"/>
    </g>
    <g id="Group_97" data-name="Group 97">
      <path id="Path_108" data-name="Path 108" d="M208.159,114.845H141.588a3.465,3.465,0,0,1-3.461-3.461v-2.606a3.46,3.46,0,0,1,3.461-3.452h66.571a3.456,3.456,0,0,1,3.452,3.452v2.606A3.46,3.46,0,0,1,208.159,114.845ZM142,110.968h65.729V109.2H142Z"/>
    </g>
    <g id="Group_98" data-name="Group 98">
      <path id="Path_109" data-name="Path 109" class="cls-3" d="M145.81,112.907h58.117a4.785,4.785,0,0,1,4.785,4.785v1.6a4.785,4.785,0,0,1-4.785,4.785H145.81a4.785,4.785,0,0,1-4.785-4.785v-1.6A4.785,4.785,0,0,1,145.81,112.907Z"/>
    </g>
    <g id="Group_99" data-name="Group 99">
      <path id="Path_110" data-name="Path 110" class="cls-4" d="M155.1,112.906h39.666a4.785,4.785,0,0,1,4.785,4.785v1.6a4.785,4.785,0,0,1-4.785,4.785H155.1a4.785,4.785,0,0,1-4.785-4.785v-1.6A4.785,4.785,0,0,1,155.1,112.906Z"/>
    </g>
    <g id="Group_100" data-name="Group 100">
      <path id="Path_111" data-name="Path 111" d="M203.412,126.02H146.327a7.248,7.248,0,0,1-7.24-7.24v-.572a7.248,7.248,0,0,1,7.24-7.24h57.085a7.248,7.248,0,0,1,7.24,7.24v.572A7.248,7.248,0,0,1,203.412,126.02Zm-57.085-11.175a3.367,3.367,0,0,0-3.363,3.363v.572a3.367,3.367,0,0,0,3.363,3.363h57.085a3.366,3.366,0,0,0,3.362-3.363v-.572a3.366,3.366,0,0,0-3.362-3.363Z"/>
    </g>
    <g id="Group_101" data-name="Group 101">
      <path id="Path_112" data-name="Path 112" class="cls-5" d="M202.078,157.715H147.784a4.542,4.542,0,0,1-4.542-4.542v-4.321a2.312,2.312,0,0,1,2.312-2.312h58.753a2.312,2.312,0,0,1,2.312,2.312v4.321A4.54,4.54,0,0,1,202.078,157.715Z"/>
    </g>
    <g id="Group_102" data-name="Group 102">
      <path id="Path_113" data-name="Path 113" class="cls-6" d="M194.831,157.376H154.906a4.542,4.542,0,0,1-4.542-4.542v-3.642a2.312,2.312,0,0,1,2.312-2.312h44.383a2.312,2.312,0,0,1,2.312,2.312v3.642A4.539,4.539,0,0,1,194.831,157.376Z"/>
    </g>
    <g id="Group_103" data-name="Group 103">
      <path id="Path_114" data-name="Path 114" d="M201.588,159.654H148.273a6.979,6.979,0,0,1-6.971-6.97V149.1a4.506,4.506,0,0,1,4.5-4.5h58.254a4.506,4.506,0,0,1,4.5,4.5v3.582A6.978,6.978,0,0,1,201.588,159.654ZM145.8,148.479a.624.624,0,0,0-.623.623v3.582a3.1,3.1,0,0,0,3.093,3.093h53.315a3.1,3.1,0,0,0,3.093-3.093V149.1a.624.624,0,0,0-.623-.623Z"/>
    </g>
    <g id="Group_104" data-name="Group 104">
      <path id="Path_115" data-name="Path 115" class="cls-5" d="M164.451,80.285h20.958a21.21,21.21,0,0,1,21.21,21.21v3.873a1.9,1.9,0,0,1-1.9,1.9H145.138a1.9,1.9,0,0,1-1.9-1.9V101.5A21.211,21.211,0,0,1,164.451,80.285Z"/>
    </g>
    <g id="Group_105" data-name="Group 105">
      <path id="Path_116" data-name="Path 116" class="cls-6" d="M174.96,84.894h-.182c12.977,0,23.5,5.911,23.5,18.888v1.381a2.1,2.1,0,0,1-2.1,2.1H153.565a2.1,2.1,0,0,1-2.1-2.1v-1.381C151.463,90.805,161.983,84.894,174.96,84.894Z"/>
    </g>
    <g id="Group_106" data-name="Group 106">
      <path id="Path_117" data-name="Path 117" d="M204.518,109.2H145.343a4.045,4.045,0,0,1-4.04-4.04v-1.38a25.465,25.465,0,0,1,25.436-25.436h16.383a25.465,25.465,0,0,1,25.436,25.436v1.38A4.045,4.045,0,0,1,204.518,109.2ZM166.739,82.224a21.583,21.583,0,0,0-21.559,21.559v1.38a.163.163,0,0,0,.163.163h59.175a.163.163,0,0,0,.163-.163v-1.38a21.583,21.583,0,0,0-21.559-21.559Z"/>
    </g>
    <g id="Group_107" data-name="Group 107">
      <path id="Path_118" data-name="Path 118" class="cls-3" d="M208.71,135.068v.479a5.345,5.345,0,0,1-5.345,5.345h-6.053a3.382,3.382,0,0,0-2.315.962,3.793,3.793,0,0,1-6.4-2.753v3.592a3.8,3.8,0,0,1-3.793,3.793h0a3.784,3.784,0,0,1-3.784-3.784h0a1.81,1.81,0,0,0-1.81-1.81H146.373a5.345,5.345,0,0,1-5.345-5.345v-.479a5.345,5.345,0,0,1,5.345-5.345h56.992A5.345,5.345,0,0,1,208.71,135.068Z"/>
    </g>
    <g id="Group_108" data-name="Group 108">
      <path id="Path_119" data-name="Path 119" class="cls-7" d="M196.146,97.53a1.929,1.929,0,0,1-1.371-.568l-1.2-1.2a1.939,1.939,0,0,1,2.743-2.741l1.2,1.2a1.939,1.939,0,0,1-1.372,3.309Z"/>
    </g>
    <g id="Group_109" data-name="Group 109">
      <path id="Path_120" data-name="Path 120" class="cls-7" d="M153.711,97.53a1.938,1.938,0,0,1-1.371-3.309l1.2-1.2a1.938,1.938,0,0,1,2.741,2.741l-1.2,1.2A1.929,1.929,0,0,1,153.711,97.53Z"/>
    </g>
    <g id="Group_110" data-name="Group 110">
      <path id="Path_121" data-name="Path 121" class="cls-7" d="M175.529,90.746a1.929,1.929,0,0,1-1.371-.568l-1.2-1.2a1.939,1.939,0,0,1,2.743-2.741l1.2,1.2a1.939,1.939,0,0,1-1.372,3.309Z"/>
    </g>
    <g id="Group_111" data-name="Group 111">
      <path id="Path_122" data-name="Path 122" class="cls-7" d="M183.6,102.477a1.938,1.938,0,0,1-1.371-3.309l1.2-1.2a1.938,1.938,0,1,1,2.741,2.741l-1.2,1.2A1.928,1.928,0,0,1,183.6,102.477Z"/>
    </g>
    <g id="Group_112" data-name="Group 112">
      <path id="Path_123" data-name="Path 123" class="cls-7" d="M166.26,102.477a1.932,1.932,0,0,1-1.371-.568l-1.2-1.2a1.938,1.938,0,1,1,2.741-2.741l1.2,1.2a1.938,1.938,0,0,1-1.37,3.309Z"/>
    </g>
    <g id="Group_113" data-name="Group 113">
      <path id="Path_124" data-name="Path 124" d="M162.908,126.02a1.938,1.938,0,0,1-1.371-3.309L164.251,120a1.938,1.938,0,0,1,2.741,2.741l-2.714,2.714A1.928,1.928,0,0,1,162.908,126.02Z"/>
    </g>
    <g id="Group_114" data-name="Group 114">
      <path id="Path_125" data-name="Path 125" d="M184.117,126.02a1.938,1.938,0,0,1-1.371-3.309L185.46,120a1.938,1.938,0,1,1,2.741,2.741l-2.714,2.714A1.928,1.928,0,0,1,184.117,126.02Z"/>
    </g>
    <g id="Group_115" data-name="Group 115">
      <path id="Path_126" data-name="Path 126" d="M155.017,117.559a1.932,1.932,0,0,1-1.371-.568l-2.714-2.714a1.938,1.938,0,0,1,2.741-2.741l2.714,2.714a1.938,1.938,0,0,1-1.37,3.309Z"/>
    </g>
    <g id="Group_116" data-name="Group 116">
      <path id="Path_127" data-name="Path 127" d="M176.226,117.559a1.932,1.932,0,0,1-1.371-.568l-2.714-2.714a1.938,1.938,0,0,1,2.741-2.741l2.714,2.714a1.938,1.938,0,0,1-1.37,3.309Z"/>
    </g>
    <g id="Group_117" data-name="Group 117">
      <path id="Path_128" data-name="Path 128" d="M197.435,117.559a1.932,1.932,0,0,1-1.371-.568l-2.714-2.714a1.938,1.938,0,1,1,2.741-2.741l2.714,2.714a1.938,1.938,0,0,1-1.37,3.309Z"/>
    </g>
    <g id="Group_118" data-name="Group 118">
      <path id="Path_129" data-name="Path 129" d="M184.117,134.376a1.938,1.938,0,0,1-1.371-3.309l2.714-2.714a1.938,1.938,0,0,1,2.741,2.741l-2.714,2.714A1.928,1.928,0,0,1,184.117,134.376Z"/>
    </g>
    <g id="Group_119" data-name="Group 119">
      <path id="Path_130" data-name="Path 130" class="cls-4" d="M155.552,129.723h38.634a5.3,5.3,0,0,1,5.3,5.3v.572a5.3,5.3,0,0,1-5.3,5.3H188.6l.046,1.471a4.019,4.019,0,0,1-3.99,4.144h0a4.018,4.018,0,0,1-4.045-4.059l.015-1.556H155.553a5.3,5.3,0,0,1-5.3-5.3v-.572A5.3,5.3,0,0,1,155.552,129.723Z"/>
    </g>
    <g id="Group_120" data-name="Group 120">
      <path id="Path_131" data-name="Path 131" d="M176.226,142.837a1.932,1.932,0,0,1-1.371-.568l-2.714-2.714a1.938,1.938,0,0,1,2.741-2.741l2.714,2.714a1.938,1.938,0,0,1-1.37,3.309Z"/>
    </g>
    <g id="Group_121" data-name="Group 121">
      <path id="Path_132" data-name="Path 132" d="M155.017,142.837a1.932,1.932,0,0,1-1.371-.568l-2.714-2.714a1.938,1.938,0,0,1,2.741-2.741l2.714,2.714a1.938,1.938,0,0,1-1.37,3.309Z"/>
    </g>
    <g id="Group_122" data-name="Group 122">
      <path id="Path_133" data-name="Path 133" d="M184.8,148.424a5.728,5.728,0,0,1-5.72-5.594H146.374a7.292,7.292,0,0,1-7.284-7.284v-.479a7.291,7.291,0,0,1,7.284-7.283h56.992a7.291,7.291,0,0,1,7.283,7.283v.479a7.291,7.291,0,0,1-7.283,7.283h-6.054a1.45,1.45,0,0,0-.981.431,5.73,5.73,0,0,1-6.065,1.163A5.741,5.741,0,0,1,184.8,148.424Zm-38.429-16.762a3.41,3.41,0,0,0-3.406,3.406v.479a3.41,3.41,0,0,0,3.406,3.406h32.835a3.754,3.754,0,0,1,3.749,3.749,1.85,1.85,0,1,0,3.7-.009V139.1a1.939,1.939,0,1,1,3.878,0,1.855,1.855,0,0,0,.22.874,1.916,1.916,0,0,0,2.911.471,5.306,5.306,0,0,1,3.647-1.493h6.054a3.41,3.41,0,0,0,3.406-3.406v-.479a3.41,3.41,0,0,0-3.406-3.406H146.373Z"/>
    </g>
    <g id="Group_123" data-name="Group 123">
      <path id="Path_134" data-name="Path 134" class="cls-8" d="M209.673,125.6v2.6a1.518,1.518,0,0,1-1.513,1.523H167.73a6.569,6.569,0,0,0-4.645,1.924l-1.6,1.6a2.764,2.764,0,0,1-3.906,0l-1.612-1.609a6.572,6.572,0,0,0-4.641-1.92h-9.735a1.523,1.523,0,0,1-1.523-1.523v-2.606a1.518,1.518,0,0,1,1.523-1.513h66.571A1.518,1.518,0,0,1,209.673,125.6Z"/>
    </g>
    <g id="Group_124" data-name="Group 124">
      <path id="Path_135" data-name="Path 135" d="M159.527,136a4.683,4.683,0,0,1-3.321-1.372l-1.611-1.609a4.6,4.6,0,0,0-3.271-1.353h-9.735a3.466,3.466,0,0,1-3.461-3.462v-2.606a3.461,3.461,0,0,1,3.461-3.452H208.16a3.456,3.456,0,0,1,3.452,3.452v2.6a3.461,3.461,0,0,1-3.452,3.462H167.73a4.6,4.6,0,0,0-3.274,1.356l-1.6,1.6A4.688,4.688,0,0,1,159.527,136ZM142,127.785h9.319a8.449,8.449,0,0,1,6.01,2.487l1.611,1.609a.824.824,0,0,0,1.165,0l1.6-1.6a8.451,8.451,0,0,1,6.015-2.492h40.005V126.02H142v1.765Z"/>
    </g>
  </g>
</svg>
