<svg xmlns="http://www.w3.org/2000/svg" viewBox="0 0 70.888 87.682">
  <defs>
    <style>
      .cls-1 {
        fill: #ecb67c;
      }

      .cls-2 {
        fill: #e1ac77;
      }

      .cls-3 {
        fill: #f8cc77;
      }

      .cls-4 {
        fill: #e9bb6d;
      }

      .cls-5 {
        fill: #e9785a;
      }

      .cls-6 {
        fill: #ec6d57;
      }
    </style>
  </defs>
  <g id="_x34_" transform="translate(-590.556 -75.159)">
    <g id="Group_182" data-name="Group 182">
      <path id="Path_171" data-name="Path 171" class="cls-1" d="M620.487,157.19,594.3,92.614l-1.422-3.5a5.472,5.472,0,0,1,3.352-7.242,91.783,91.783,0,0,1,59.654.448A5.465,5.465,0,0,1,659.1,89.6l-1.3,3.086-27.312,64.581A5.41,5.41,0,0,1,620.487,157.19Z"/>
    </g>
    <g id="Group_183" data-name="Group 183">
      <path id="Path_172" data-name="Path 172" class="cls-2" d="M593.569,90.831l-.7-1.722a5.472,5.472,0,0,1,3.352-7.242,91.783,91.783,0,0,1,59.654.448A5.465,5.465,0,0,1,659.1,89.6l-.623,1.474S640.715,84.895,626,84.895,593.569,90.831,593.569,90.831Z"/>
    </g>
    <g id="Group_184" data-name="Group 184">
      <path id="Path_173" data-name="Path 173" d="M625.505,162.48h-.058a7.211,7.211,0,0,1-6.733-4.571h0L591.1,89.827a7.293,7.293,0,0,1,.136-5.848,7.434,7.434,0,0,1,4.383-3.926,93.089,93.089,0,0,1,60.9.457,7.377,7.377,0,0,1,4.348,9.831l-28.616,67.667A7.211,7.211,0,0,1,625.505,162.48Zm-3.245-6.009a3.5,3.5,0,0,0,6.464.048L657.34,88.853a3.552,3.552,0,0,0-2.093-4.733,89.288,89.288,0,0,0-58.414-.438,3.543,3.543,0,0,0-2.12,1.9,3.5,3.5,0,0,0-.065,2.811Z"/>
    </g>
    <g id="Group_185" data-name="Group 185">
      <path id="Path_174" data-name="Path 174" class="cls-3" d="M621.041,157.829l-23.323-57.505a.424.424,0,0,1,.235-.553,74.232,74.232,0,0,1,56.208.415.426.426,0,0,1,.228.557L630.218,157.9A4.967,4.967,0,0,1,621.041,157.829Z"/>
    </g>
    <g id="Group_186" data-name="Group 186">
      <path id="Path_175" data-name="Path 175" class="cls-4" d="M599.1,103.856l-1.433-3.532a.424.424,0,0,1,.235-.553,74.232,74.232,0,0,1,56.208.415.426.426,0,0,1,.228.557l-1.469,3.472S639.122,99.332,626,99.332,599.1,103.856,599.1,103.856Z"/>
    </g>
    <g id="Group_187" data-name="Group 187">
      <path id="Path_176" data-name="Path 176" d="M625.647,162.841h-.055a6.772,6.772,0,0,1-6.324-4.293l-23.323-57.506a2.338,2.338,0,0,1,1.3-3.049,75.944,75.944,0,0,1,57.65.427,2.338,2.338,0,0,1,1.254,3.068l-24.17,57.153A6.77,6.77,0,0,1,625.647,162.841Zm-2.834-5.731a2.968,2.968,0,0,0,2.807,1.906,3.047,3.047,0,0,0,2.836-1.865l23.582-55.76a72.1,72.1,0,0,0-51.979-.384Z"/>
    </g>
    <g id="Group_188" data-name="Group 188">
      <circle id="Ellipse_4" data-name="Ellipse 4" class="cls-5" cx="8.129" cy="8.129" r="8.129" transform="translate(626.004 101.7)"/>
    </g>
    <g id="Group_189" data-name="Group 189">
      <path id="Path_177" data-name="Path 177" d="M634.133,119.871a10.042,10.042,0,1,1,10.042-10.042A10.054,10.054,0,0,1,634.133,119.871Zm0-16.258a6.216,6.216,0,1,0,6.216,6.216A6.223,6.223,0,0,0,634.133,103.613Z"/>
    </g>
    <g id="Group_190" data-name="Group 190">
      <path id="Path_178" data-name="Path 178" class="cls-6" d="M620.256,126.733a8.129,8.129,0,0,1-8.129,8.129c-.233,0-.465-.01-.693-.029l-5.458-13.415a8.129,8.129,0,0,1,14.28,5.315Z"/>
    </g>
    <g id="Group_191" data-name="Group 191">
      <path id="Path_179" data-name="Path 179" d="M612.127,136.775c-.289,0-.574-.012-.857-.036a1.913,1.913,0,0,1-1.608-1.185L604.2,122.14a1.912,1.912,0,0,1,.325-1.972,10.042,10.042,0,1,1,7.6,16.607Zm-3.9-14.887,4.49,11.033a6.216,6.216,0,1,0-4.49-11.033Z"/>
    </g>
    <g id="Group_192" data-name="Group 192">
      <path id="Path_180" data-name="Path 180" class="cls-5" d="M633.283,150.65a8.13,8.13,0,1,1,6.1-14.721Z"/>
    </g>
    <g id="Group_193" data-name="Group 193">
      <path id="Path_181" data-name="Path 181" d="M633.284,152.562a1.888,1.888,0,0,1-.365-.035,10.042,10.042,0,1,1,7.538-18.183,1.914,1.914,0,0,1,.7,2.318l-6.1,14.721A1.916,1.916,0,0,1,633.284,152.562Zm1.556-16.109a6.219,6.219,0,0,0-2.652,11.842l4.758-11.477A6.211,6.211,0,0,0,634.84,136.453Z"/>
    </g>
  </g>
</svg>
